<?xml version="1.0" encoding="UTF-8" standalone="no"?>
<!-- Created with Inkscape (http://www.inkscape.org/) -->

<svg
   xmlns:dc="http://purl.org/dc/elements/1.1/"
   xmlns:cc="http://creativecommons.org/ns#"
   xmlns:rdf="http://www.w3.org/1999/02/22-rdf-syntax-ns#"
   xmlns:svg="http://www.w3.org/2000/svg"
   xmlns="http://www.w3.org/2000/svg"
   xmlns:sodipodi="http://sodipodi.sourceforge.net/DTD/sodipodi-0.dtd"
   xmlns:inkscape="http://www.inkscape.org/namespaces/inkscape"
   width="400"
   height="400"
   viewBox="0 0 105.83333 105.83333"
   version="1.1"
   id="svg8"
   inkscape:version="0.92.3 (unknown)"
   sodipodi:docname="oneboard-logo.svg"
   inkscape:export-filename="/home/shinjan/Pictures/oneboard-logo.png"
   inkscape:export-xdpi="96"
   inkscape:export-ydpi="96">
  <defs
     id="defs2" />
  <sodipodi:namedview
     id="base"
     pagecolor="#ffffff"
     bordercolor="#666666"
     borderopacity="1.0"
     inkscape:pageopacity="0.0"
     inkscape:pageshadow="2"
     inkscape:zoom="0.7"
     inkscape:cx="122.91465"
     inkscape:cy="252.36709"
     inkscape:document-units="mm"
     inkscape:current-layer="layer1"
     showgrid="false"
     units="px"
     inkscape:window-width="1920"
     inkscape:window-height="993"
     inkscape:window-x="0"
     inkscape:window-y="24"
     inkscape:window-maximized="1" />
  <metadata
     id="metadata5">
    <rdf:RDF>
      <cc:Work
         rdf:about="">
        <dc:format>image/svg+xml</dc:format>
        <dc:type
           rdf:resource="http://purl.org/dc/dcmitype/StillImage" />
        <dc:title></dc:title>
      </cc:Work>
    </rdf:RDF>
  </metadata>
  <g
     inkscape:label="Layer 1"
     inkscape:groupmode="layer"
     id="layer1"
     transform="translate(0,-191.16667)">
    <rect
       style="opacity:0.9;fill:#4caf50;fill-opacity:1;stroke:none;stroke-width:2.36999488;stroke-miterlimit:4;stroke-dasharray:none;stroke-opacity:1"
       id="rect847"
       width="58.502312"
       height="58.502319"
       x="214.83218"
       y="-82.167816"
       transform="rotate(90)" />
    <path
       id="path817"
       d="m 60.192712,263.00105 h -5.82084 v -30.90863 l -8.73125,2.96863 v -4.94771 l 13.67896,-4.94771 h 0.87313 z"
       inkscape:connector-curvature="0"
       sodipodi:nodetypes="cccccccc"
       style="fill:#ffffff;fill-opacity:1;stroke-width:2.9104166" />
    <path
       id="path833"
       d="M 98.765172,238.98906 V 228.8005 h -10.18855 v -10.18855 c 0,-5.60371 -4.58485,-10.18856 -10.18856,-10.18856 h -10.18856 v -10.18856 h -10.18856 v 10.18856 h -10.18855 v -10.18856 h -10.18856 v 10.18856 h -10.18856 c -5.60371,0 -10.18856,4.58485 -10.18856,10.18856 V 228.8005 H 7.0681617 v 10.18856 H 17.256712 v 10.18856 H 7.0681617 v 10.18856 H 17.256712 v 10.18856 c 0,5.60371 4.58485,10.18856 10.18856,10.18856 h 10.18856 v 10.18855 h 10.18856 V 279.7433 h 10.18855 v 10.18855 h 10.18856 V 279.7433 h 10.18856 c 5.60371,0 10.18856,-4.58485 10.18856,-10.18856 v -10.18856 h 10.18855 v -10.18856 h -10.18855 v -10.18856 z m -20.37711,30.56568 h -50.94279 v -50.94279 h 50.94279 z"
       inkscape:connector-curvature="0"
       sodipodi:nodetypes="cccssccccccccssccccccccssccccccccssccccccccccc"
       style="fill:#4caf50;fill-opacity:1;stroke-width:5.09427881" />
  </g>
</svg>
